<svg xmlns="http://www.w3.org/2000/svg" xmlns:xlink="http://www.w3.org/1999/xlink" width="1920" zoomAndPan="magnify" viewBox="0 0 1440 809.999993" height="1080" preserveAspectRatio="xMidYMid meet" version="1.0"><defs><g/><clipPath id="944087b945"><path d="M 286.328125 225.277344 L 462.5 225.277344 L 462.5 480.671875 L 286.328125 480.671875 Z M 286.328125 225.277344 " clip-rule="nonzero"/></clipPath><clipPath id="87cd378038"><path d="M 369.742188 361.28125 L 379.203125 361.28125 L 379.203125 398.523438 L 369.742188 398.523438 Z M 369.742188 361.28125 " clip-rule="nonzero"/></clipPath><clipPath id="247faeefee"><path d="M 94 128.601562 L 660 128.601562 L 660 226.738281 L 94 226.738281 Z M 94 128.601562 " clip-rule="nonzero"/></clipPath><clipPath id="bf5ca10467"><path d="M 450.230469 341.144531 L 462.644531 341.144531 L 462.644531 480.664062 L 450.230469 480.664062 Z M 450.230469 341.144531 " clip-rule="nonzero"/></clipPath><clipPath id="ab5e1f7e20"><path d="M 450.230469 225.175781 L 462.644531 225.175781 L 462.644531 364.695312 L 450.230469 364.695312 Z M 450.230469 225.175781 " clip-rule="nonzero"/></clipPath><clipPath id="270affecc3"><path d="M 286.324219 341.144531 L 298.742188 341.144531 L 298.742188 480.664062 L 286.324219 480.664062 Z M 286.324219 341.144531 " clip-rule="nonzero"/></clipPath><clipPath id="e7af72d46d"><path d="M 286.324219 225.175781 L 298.742188 225.175781 L 298.742188 364.695312 L 286.324219 364.695312 Z M 286.324219 225.175781 " clip-rule="nonzero"/></clipPath><clipPath id="4fdd8de8f0"><path d="M 299 479.488281 L 449 479.488281 L 449 553 L 299 553 Z M 299 479.488281 " clip-rule="nonzero"/></clipPath><clipPath id="e0d71aac28"><path d="M 286 479.488281 L 461.910156 479.488281 L 461.910156 565.335938 L 286 565.335938 Z M 286 479.488281 " clip-rule="nonzero"/></clipPath><clipPath id="9eba0a5759"><path d="M 312.660156 428 L 437 428 L 437 553 L 312.660156 553 Z M 312.660156 428 " clip-rule="nonzero"/></clipPath></defs><rect x="-144" width="1728" fill="#ffffff" y="-80.999999" height="971.999992" fill-opacity="1"/><rect x="-144" width="1728" fill="#ffffff" y="-80.999999" height="971.999992" fill-opacity="1"/><g clip-path="url(#944087b945)"><path stroke-linecap="butt" transform="matrix(0.674404, 0, 0, 0.675465, 141.023349, -20.741317)" fill="none" stroke-linejoin="miter" d="M 225.708563 732.35853 L 465.712017 732.35853 C 466.719851 540.939536 225.847575 540.881705 226.861201 374.208387 L 465.90895 374.208387 C 466.922576 540.887488 225.708563 542.448912 225.708563 732.35853 Z M 225.708563 732.35853 " stroke="#2c3a4e" stroke-width="20" stroke-opacity="1" stroke-miterlimit="4"/></g><path fill="#2c3a4e" d="M 325.640625 299.117188 C 367.878906 315.496094 381.503906 314.128906 426.464844 298.4375 L 374.691406 346.882812 Z M 325.640625 299.117188 " fill-opacity="1" fill-rule="nonzero"/><path fill="#2c3a4e" d="M 298.394531 451.28125 C 374.699219 387.824219 374.699219 387.824219 450.3125 451.28125 L 455.761719 474.480469 L 293.621094 474.480469 Z M 298.394531 451.28125 " fill-opacity="1" fill-rule="nonzero"/><g clip-path="url(#87cd378038)"><path fill="#2c3a4e" d="M 379.203125 365.945312 C 379.203125 363.375 377.121094 361.292969 374.550781 361.292969 C 371.980469 361.292969 369.902344 363.375 369.902344 365.945312 C 369.902344 368.515625 371.980469 370.597656 374.550781 370.597656 C 377.121094 370.597656 379.203125 368.515625 379.203125 365.945312 Z M 379.203125 393.851562 C 379.203125 391.28125 377.121094 389.199219 374.550781 389.199219 C 371.980469 389.199219 369.902344 391.28125 369.902344 393.851562 C 369.902344 396.421875 371.980469 398.503906 374.550781 398.503906 C 377.121094 398.503906 379.203125 396.421875 379.203125 393.851562 Z M 379.203125 379.898438 C 379.203125 377.328125 377.121094 375.246094 374.550781 375.246094 C 371.980469 375.246094 369.902344 377.328125 369.902344 379.898438 C 369.902344 382.46875 371.980469 384.550781 374.550781 384.550781 C 377.121094 384.550781 379.203125 382.46875 379.203125 379.898438 Z M 379.203125 379.898438 " fill-opacity="1" fill-rule="nonzero"/></g><g clip-path="url(#247faeefee)"><path fill="#2c3a4e" d="M 144.601562 128.601562 C 142.984375 128.578125 141.371094 128.636719 139.757812 128.773438 C 138.148438 128.910156 136.546875 129.128906 134.957031 129.421875 C 133.367188 129.71875 131.796875 130.09375 130.246094 130.542969 C 128.691406 130.996094 127.164062 131.523438 125.664062 132.125 C 124.164062 132.730469 122.699219 133.40625 121.265625 134.152344 C 119.832031 134.902344 118.4375 135.71875 117.085938 136.605469 C 115.734375 137.492188 114.429688 138.441406 113.171875 139.457031 C 111.914062 140.476562 110.707031 141.550781 109.554688 142.6875 C 108.40625 143.820312 107.3125 145.011719 106.277344 146.253906 C 105.246094 147.496094 104.273438 148.789062 103.371094 150.128906 C 102.464844 151.46875 101.628906 152.847656 100.859375 154.273438 C 100.089844 155.695312 99.394531 157.152344 98.769531 158.644531 C 98.144531 160.136719 97.597656 161.65625 97.125 163.199219 C 96.648438 164.746094 96.253906 166.3125 95.9375 167.898438 C 95.617188 169.484375 95.378906 171.082031 95.21875 172.6875 C 95.058594 174.296875 94.980469 175.910156 94.980469 177.527344 C 94.980469 179.144531 95.058594 180.757812 95.21875 182.367188 C 95.378906 183.976562 95.617188 185.574219 95.9375 187.160156 C 96.253906 188.746094 96.648438 190.308594 97.125 191.855469 C 97.597656 193.402344 98.144531 194.921875 98.769531 196.414062 C 99.394531 197.90625 100.089844 199.363281 100.859375 200.785156 C 101.628906 202.207031 102.464844 203.589844 103.371094 204.929688 C 104.273438 206.269531 105.246094 207.558594 106.277344 208.804688 C 107.3125 210.046875 108.40625 211.234375 109.554688 212.371094 C 110.707031 213.507812 111.910156 214.582031 113.171875 215.597656 C 114.429688 216.613281 115.734375 217.566406 117.085938 218.449219 C 118.4375 219.335938 119.832031 220.15625 121.265625 220.902344 C 122.699219 221.652344 124.164062 222.328125 125.664062 222.929688 C 127.164062 223.53125 128.691406 224.058594 130.246094 224.511719 C 131.796875 224.964844 133.367188 225.335938 134.957031 225.632812 C 136.546875 225.929688 138.148438 226.144531 139.757812 226.28125 C 141.371094 226.417969 142.984375 226.476562 144.601562 226.453125 L 609.394531 226.453125 C 611.011719 226.476562 612.625 226.417969 614.234375 226.28125 C 615.847656 226.144531 617.445312 225.929688 619.035156 225.632812 C 620.625 225.335938 622.195312 224.964844 623.75 224.511719 C 625.300781 224.058594 626.828125 223.53125 628.328125 222.929688 C 629.828125 222.328125 631.296875 221.652344 632.730469 220.902344 C 634.164062 220.15625 635.554688 219.335938 636.910156 218.449219 C 638.261719 217.566406 639.566406 216.613281 640.824219 215.597656 C 642.082031 214.582031 643.289062 213.507812 644.4375 212.371094 C 645.589844 211.234375 646.683594 210.046875 647.714844 208.804688 C 648.75 207.558594 649.71875 206.269531 650.625 204.929688 C 651.53125 203.589844 652.367188 202.207031 653.136719 200.785156 C 653.902344 199.363281 654.601562 197.90625 655.222656 196.414062 C 655.847656 194.921875 656.398438 193.402344 656.871094 191.855469 C 657.34375 190.308594 657.738281 188.746094 658.058594 187.160156 C 658.375 185.574219 658.617188 183.976562 658.777344 182.367188 C 658.933594 180.757812 659.015625 179.144531 659.015625 177.527344 C 659.015625 175.910156 658.933594 174.296875 658.777344 172.6875 C 658.617188 171.082031 658.375 169.484375 658.058594 167.898438 C 657.738281 166.3125 657.34375 164.746094 656.871094 163.199219 C 656.398438 161.65625 655.847656 160.136719 655.222656 158.644531 C 654.601562 157.152344 653.902344 155.695312 653.136719 154.273438 C 652.367188 152.847656 651.53125 151.46875 650.625 150.128906 C 649.71875 148.789062 648.75 147.496094 647.714844 146.253906 C 646.683594 145.011719 645.589844 143.820312 644.4375 142.6875 C 643.289062 141.550781 642.082031 140.476562 640.824219 139.457031 C 639.566406 138.441406 638.261719 137.492188 636.910156 136.605469 C 635.554688 135.71875 634.164062 134.902344 632.730469 134.152344 C 631.296875 133.40625 629.828125 132.730469 628.328125 132.125 C 626.828125 131.523438 625.300781 130.996094 623.75 130.542969 C 622.195312 130.09375 620.625 129.71875 619.035156 129.421875 C 617.445312 129.128906 615.847656 128.910156 614.234375 128.773438 C 612.625 128.636719 611.011719 128.578125 609.394531 128.601562 Z M 144.601562 128.601562 " fill-opacity="1" fill-rule="nonzero"/></g><g clip-path="url(#bf5ca10467)"><path fill="#2c3a4e" d="M 449.804688 480.21875 L 449.804688 341.960938 L 462.082031 341.960938 L 462.082031 480.21875 Z M 449.804688 480.21875 " fill-opacity="1" fill-rule="nonzero"/></g><g clip-path="url(#ab5e1f7e20)"><path fill="#2c3a4e" d="M 449.804688 364.25 L 449.804688 225.992188 L 462.082031 225.992188 L 462.082031 364.25 Z M 449.804688 364.25 " fill-opacity="1" fill-rule="nonzero"/></g><g clip-path="url(#270affecc3)"><path fill="#2c3a4e" d="M 285.902344 480.21875 L 285.902344 341.960938 L 298.175781 341.960938 L 298.175781 480.21875 Z M 285.902344 480.21875 " fill-opacity="1" fill-rule="nonzero"/></g><g clip-path="url(#e7af72d46d)"><path fill="#2c3a4e" d="M 285.902344 364.25 L 285.902344 225.992188 L 298.175781 225.992188 L 298.175781 364.25 Z M 285.902344 364.25 " fill-opacity="1" fill-rule="nonzero"/></g><g clip-path="url(#4fdd8de8f0)"><path fill="#2c3a4e" d="M 448.460938 477.546875 C 448.460938 478.765625 448.433594 479.984375 448.371094 481.203125 C 448.3125 482.421875 448.222656 483.640625 448.101562 484.855469 C 447.984375 486.070312 447.835938 487.277344 447.65625 488.484375 C 447.476562 489.691406 447.265625 490.894531 447.03125 492.089844 C 446.792969 493.289062 446.523438 494.480469 446.226562 495.664062 C 445.929688 496.847656 445.605469 498.023438 445.25 499.1875 C 444.898438 500.355469 444.515625 501.515625 444.105469 502.664062 C 443.691406 503.8125 443.253906 504.953125 442.785156 506.078125 C 442.320312 507.207031 441.824219 508.320312 441.304688 509.425781 C 440.78125 510.527344 440.234375 511.617188 439.65625 512.691406 C 439.082031 513.769531 438.480469 514.832031 437.855469 515.878906 C 437.226562 516.921875 436.574219 517.953125 435.898438 518.96875 C 435.21875 519.984375 434.515625 520.980469 433.789062 521.960938 C 433.0625 522.941406 432.3125 523.902344 431.539062 524.847656 C 430.765625 525.789062 429.96875 526.710938 429.148438 527.617188 C 428.328125 528.519531 427.488281 529.40625 426.625 530.265625 C 425.761719 531.128906 424.878906 531.972656 423.972656 532.789062 C 423.070312 533.609375 422.144531 534.40625 421.203125 535.179688 C 420.257812 535.957031 419.296875 536.707031 418.316406 537.433594 C 417.335938 538.160156 416.339844 538.863281 415.324219 539.539062 C 414.3125 540.21875 413.28125 540.871094 412.234375 541.496094 C 411.1875 542.125 410.125 542.726562 409.050781 543.300781 C 407.972656 543.875 406.882812 544.425781 405.78125 544.945312 C 404.679688 545.46875 403.5625 545.964844 402.433594 546.429688 C 401.308594 546.898438 400.167969 547.335938 399.019531 547.746094 C 397.871094 548.15625 396.714844 548.539062 395.546875 548.894531 C 394.378906 549.25 393.203125 549.574219 392.019531 549.871094 C 390.835938 550.167969 389.644531 550.433594 388.449219 550.671875 C 387.25 550.910156 386.050781 551.121094 384.84375 551.296875 C 383.636719 551.476562 382.425781 551.625 381.210938 551.746094 C 379.996094 551.867188 378.78125 551.957031 377.5625 552.015625 C 376.34375 552.074219 375.121094 552.105469 373.902344 552.105469 C 372.683594 552.105469 371.464844 552.074219 370.246094 552.015625 C 369.027344 551.957031 367.808594 551.867188 366.59375 551.746094 C 365.378906 551.625 364.167969 551.476562 362.960938 551.296875 C 361.753906 551.121094 360.554688 550.910156 359.355469 550.671875 C 358.160156 550.433594 356.96875 550.167969 355.785156 549.871094 C 354.601562 549.574219 353.425781 549.25 352.257812 548.894531 C 351.089844 548.539062 349.933594 548.15625 348.785156 547.746094 C 347.636719 547.335938 346.496094 546.898438 345.371094 546.429688 C 344.242188 545.964844 343.128906 545.46875 342.023438 544.945312 C 340.921875 544.425781 339.832031 543.875 338.753906 543.300781 C 337.679688 542.726562 336.617188 542.125 335.570312 541.496094 C 334.523438 540.871094 333.496094 540.21875 332.480469 539.539062 C 331.464844 538.863281 330.46875 538.160156 329.488281 537.433594 C 328.507812 536.707031 327.546875 535.957031 326.601562 535.179688 C 325.660156 534.40625 324.734375 533.609375 323.832031 532.789062 C 322.925781 531.972656 322.042969 531.128906 321.179688 530.265625 C 320.316406 529.40625 319.476562 528.519531 318.65625 527.617188 C 317.839844 526.710938 317.042969 525.789062 316.265625 524.847656 C 315.492188 523.902344 314.742188 522.941406 314.015625 521.960938 C 313.289062 520.980469 312.585938 519.984375 311.910156 518.96875 C 311.230469 517.953125 310.578125 516.921875 309.949219 515.878906 C 309.324219 514.832031 308.722656 513.769531 308.148438 512.691406 C 307.570312 511.617188 307.023438 510.527344 306.5 509.425781 C 305.980469 508.320312 305.484375 507.207031 305.019531 506.078125 C 304.550781 504.953125 304.113281 503.8125 303.703125 502.664062 C 303.289062 501.515625 302.90625 500.355469 302.554688 499.1875 C 302.199219 498.023438 301.875 496.847656 301.578125 495.664062 C 301.28125 494.480469 301.015625 493.289062 300.777344 492.089844 C 300.539062 490.894531 300.328125 489.691406 300.148438 488.484375 C 299.972656 487.277344 299.820312 486.070312 299.703125 484.855469 C 299.582031 483.640625 299.492188 482.421875 299.433594 481.203125 C 299.375 479.984375 299.34375 478.765625 299.34375 477.546875 C 299.34375 476.324219 299.375 475.105469 299.433594 473.886719 C 299.492188 472.667969 299.582031 471.453125 299.703125 470.238281 C 299.820312 469.023438 299.972656 467.8125 300.148438 466.605469 C 300.328125 465.398438 300.539062 464.195312 300.777344 463 C 301.015625 461.804688 301.28125 460.613281 301.578125 459.429688 C 301.875 458.246094 302.199219 457.070312 302.554688 455.902344 C 302.90625 454.734375 303.289062 453.578125 303.703125 452.425781 C 304.113281 451.277344 304.550781 450.140625 305.019531 449.011719 C 305.484375 447.886719 305.980469 446.769531 306.5 445.667969 C 307.023438 444.566406 307.570312 443.476562 308.148438 442.398438 C 308.722656 441.324219 309.324219 440.261719 309.949219 439.214844 C 310.578125 438.167969 311.230469 437.136719 311.910156 436.121094 C 312.585938 435.109375 313.289062 434.109375 314.015625 433.132812 C 314.742188 432.152344 315.492188 431.1875 316.265625 430.246094 C 317.042969 429.300781 317.839844 428.378906 318.65625 427.476562 C 319.476562 426.570312 320.316406 425.6875 321.179688 424.824219 C 322.042969 423.960938 322.925781 423.121094 323.832031 422.300781 C 324.734375 421.480469 325.660156 420.683594 326.601562 419.910156 C 327.546875 419.136719 328.507812 418.386719 329.488281 417.660156 C 330.46875 416.933594 331.464844 416.230469 332.480469 415.550781 C 333.496094 414.875 334.523438 414.222656 335.570312 413.59375 C 336.617188 412.96875 337.679688 412.367188 338.753906 411.789062 C 339.832031 411.214844 340.921875 410.667969 342.023438 410.144531 C 343.128906 409.625 344.242188 409.128906 345.371094 408.660156 C 346.496094 408.195312 347.636719 407.757812 348.785156 407.34375 C 349.933594 406.933594 351.089844 406.550781 352.257812 406.195312 C 353.425781 405.84375 354.601562 405.515625 355.785156 405.222656 C 356.96875 404.925781 358.160156 404.65625 359.355469 404.417969 C 360.554688 404.179688 361.753906 403.972656 362.960938 403.792969 C 364.167969 403.613281 365.378906 403.464844 366.59375 403.34375 C 367.808594 403.226562 369.027344 403.136719 370.246094 403.078125 C 371.464844 403.015625 372.683594 402.988281 373.902344 402.988281 C 375.121094 402.988281 376.34375 403.015625 377.5625 403.078125 C 378.78125 403.136719 379.996094 403.226562 381.210938 403.34375 C 382.425781 403.464844 383.636719 403.613281 384.84375 403.792969 C 386.050781 403.972656 387.25 404.179688 388.449219 404.417969 C 389.644531 404.65625 390.835938 404.925781 392.019531 405.222656 C 393.203125 405.515625 394.378906 405.84375 395.546875 406.195312 C 396.714844 406.550781 397.871094 406.933594 399.019531 407.34375 C 400.167969 407.757812 401.308594 408.195312 402.433594 408.660156 C 403.5625 409.128906 404.679688 409.625 405.78125 410.144531 C 406.882812 410.667969 407.972656 411.214844 409.050781 411.789062 C 410.125 412.367188 411.1875 412.96875 412.234375 413.59375 C 413.28125 414.222656 414.3125 414.875 415.324219 415.550781 C 416.339844 416.230469 417.335938 416.933594 418.316406 417.660156 C 419.296875 418.386719 420.257812 419.136719 421.203125 419.910156 C 422.144531 420.683594 423.070312 421.480469 423.972656 422.300781 C 424.878906 423.121094 425.761719 423.960938 426.625 424.824219 C 427.488281 425.6875 428.328125 426.570312 429.148438 427.476562 C 429.96875 428.378906 430.765625 429.300781 431.539062 430.246094 C 432.3125 431.1875 433.0625 432.152344 433.789062 433.132812 C 434.515625 434.109375 435.21875 435.109375 435.898438 436.121094 C 436.574219 437.136719 437.226562 438.167969 437.855469 439.214844 C 438.480469 440.261719 439.082031 441.324219 439.65625 442.398438 C 440.234375 443.476562 440.78125 444.566406 441.304688 445.667969 C 441.824219 446.769531 442.320312 447.886719 442.785156 449.011719 C 443.253906 450.140625 443.691406 451.277344 444.105469 452.425781 C 444.515625 453.578125 444.898438 454.734375 445.25 455.902344 C 445.605469 457.070312 445.929688 458.246094 446.226562 459.429688 C 446.523438 460.613281 446.792969 461.804688 447.03125 463 C 447.265625 464.195312 447.476562 465.398438 447.65625 466.605469 C 447.835938 467.8125 447.984375 469.023438 448.101562 470.238281 C 448.222656 471.453125 448.3125 472.667969 448.371094 473.886719 C 448.433594 475.105469 448.460938 476.324219 448.460938 477.546875 Z M 448.460938 477.546875 " fill-opacity="1" fill-rule="nonzero"/></g><g clip-path="url(#e0d71aac28)"><path fill="#2c3a4e" d="M 373.929688 565.277344 C 373.617188 565.277344 373.308594 565.277344 373 565.277344 C 371.5625 565.261719 370.128906 565.210938 368.695312 565.125 C 367.261719 565.039062 365.832031 564.917969 364.40625 564.765625 C 362.976562 564.609375 361.554688 564.417969 360.136719 564.191406 C 358.71875 563.96875 357.308594 563.707031 355.902344 563.414062 C 354.496094 563.117188 353.101562 562.789062 351.710938 562.425781 C 350.320312 562.0625 348.941406 561.667969 347.574219 561.234375 C 346.203125 560.804688 344.847656 560.339844 343.5 559.84375 C 342.152344 559.34375 340.820312 558.816406 339.496094 558.25 C 338.175781 557.6875 336.871094 557.09375 335.578125 556.464844 C 334.289062 555.839844 333.011719 555.179688 331.753906 554.492188 C 330.496094 553.800781 329.253906 553.082031 328.03125 552.328125 C 326.804688 551.578125 325.601562 550.796875 324.414062 549.988281 C 323.230469 549.179688 322.066406 548.339844 320.921875 547.472656 C 319.777344 546.605469 318.65625 545.710938 317.554688 544.789062 C 316.453125 543.867188 315.375 542.917969 314.324219 541.941406 C 313.269531 540.96875 312.238281 539.96875 311.234375 538.941406 C 310.230469 537.917969 309.25 536.867188 308.296875 535.792969 C 307.34375 534.71875 306.417969 533.621094 305.519531 532.503906 C 304.621094 531.382812 303.75 530.242188 302.90625 529.082031 C 302.0625 527.921875 301.25 526.738281 300.464844 525.535156 C 299.679688 524.335938 298.921875 523.113281 298.199219 521.875 C 297.472656 520.636719 296.777344 519.378906 296.113281 518.105469 C 295.449219 516.832031 294.816406 515.546875 294.21875 514.242188 C 293.617188 512.9375 293.050781 511.617188 292.511719 510.285156 C 291.976562 508.953125 291.476562 507.609375 291.003906 506.253906 C 290.535156 504.898438 290.097656 503.53125 289.695312 502.152344 C 289.292969 500.773438 288.925781 499.386719 288.589844 497.988281 C 288.257812 496.59375 287.957031 495.191406 287.691406 493.78125 C 287.425781 492.367188 287.195312 490.953125 287 489.53125 C 286.804688 488.109375 286.640625 486.679688 286.515625 485.25 C 286.390625 483.820312 286.300781 482.386719 286.242188 480.953125 C 286.1875 479.519531 286.167969 478.085938 286.183594 476.648438 C 286.195312 475.214844 286.246094 473.777344 286.332031 472.34375 C 286.417969 470.914062 286.539062 469.480469 286.691406 468.054688 C 286.847656 466.628906 287.039062 465.203125 287.265625 463.785156 C 287.488281 462.367188 287.75 460.957031 288.042969 459.550781 C 288.339844 458.148438 288.667969 456.75 289.03125 455.359375 C 289.394531 453.972656 289.792969 452.59375 290.222656 451.222656 C 290.652344 449.855469 291.117188 448.496094 291.613281 447.148438 C 292.113281 445.800781 292.640625 444.46875 293.207031 443.148438 C 293.769531 441.828125 294.363281 440.519531 294.992188 439.230469 C 295.617188 437.9375 296.277344 436.664062 296.964844 435.402344 C 297.65625 434.144531 298.375 432.902344 299.128906 431.679688 C 299.878906 430.457031 300.660156 429.25 301.46875 428.066406 C 302.277344 426.878906 303.117188 425.714844 303.984375 424.570312 C 304.851562 423.425781 305.746094 422.304688 306.667969 421.203125 C 307.589844 420.101562 308.539062 419.027344 309.511719 417.972656 C 310.488281 416.917969 311.488281 415.890625 312.515625 414.886719 C 313.539062 413.878906 314.589844 412.902344 315.664062 411.949219 C 316.738281 410.996094 317.832031 410.070312 318.953125 409.167969 C 320.070312 408.269531 321.210938 407.398438 322.375 406.554688 C 323.535156 405.710938 324.71875 404.898438 325.917969 404.113281 C 327.121094 403.328125 328.34375 402.570312 329.582031 401.847656 C 330.820312 401.121094 332.074219 400.425781 333.347656 399.761719 C 334.621094 399.097656 335.910156 398.46875 337.214844 397.867188 C 338.519531 397.265625 339.835938 396.699219 341.167969 396.164062 C 342.5 395.625 343.84375 395.125 345.203125 394.652344 C 346.558594 394.183594 347.925781 393.746094 349.304688 393.34375 C 350.683594 392.941406 352.070312 392.574219 353.464844 392.238281 C 354.863281 391.90625 356.265625 391.605469 357.675781 391.339844 C 359.085938 391.074219 360.503906 390.84375 361.925781 390.648438 C 363.347656 390.449219 364.773438 390.289062 366.203125 390.164062 C 367.632812 390.039062 369.066406 389.945312 370.5 389.890625 C 371.9375 389.835938 373.371094 389.816406 374.808594 389.828125 C 376.242188 389.84375 377.675781 389.894531 379.109375 389.980469 C 380.542969 390.066406 381.972656 390.183594 383.402344 390.339844 C 384.828125 390.496094 386.25 390.6875 387.667969 390.910156 C 389.085938 391.136719 390.496094 391.398438 391.902344 391.691406 C 393.308594 391.984375 394.707031 392.316406 396.09375 392.679688 C 397.484375 393.042969 398.863281 393.4375 400.230469 393.867188 C 401.601562 394.300781 402.960938 394.765625 404.308594 395.261719 C 405.652344 395.757812 406.988281 396.289062 408.308594 396.851562 C 409.628906 397.414062 410.933594 398.011719 412.226562 398.636719 C 413.515625 399.265625 414.792969 399.921875 416.050781 400.613281 C 417.3125 401.304688 418.550781 402.023438 419.777344 402.773438 C 421 403.523438 422.203125 404.304688 423.390625 405.113281 C 424.574219 405.925781 425.742188 406.761719 426.886719 407.628906 C 428.03125 408.496094 429.152344 409.390625 430.253906 410.3125 C 431.351562 411.234375 432.429688 412.183594 433.484375 413.160156 C 434.539062 414.132812 435.566406 415.132812 436.570312 416.160156 C 437.574219 417.1875 438.554688 418.234375 439.507812 419.308594 C 440.460938 420.382812 441.386719 421.480469 442.285156 422.597656 C 443.1875 423.71875 444.058594 424.859375 444.902344 426.019531 C 445.746094 427.179688 446.558594 428.363281 447.34375 429.566406 C 448.128906 430.765625 448.886719 431.988281 449.609375 433.226562 C 450.335938 434.464844 451.03125 435.722656 451.695312 436.996094 C 452.359375 438.265625 452.988281 439.554688 453.589844 440.859375 C 454.191406 442.164062 454.757812 443.480469 455.292969 444.8125 C 455.832031 446.144531 456.332031 447.492188 456.804688 448.847656 C 457.273438 450.203125 457.710938 451.570312 458.113281 452.949219 C 458.515625 454.328125 458.882812 455.714844 459.21875 457.109375 C 459.550781 458.507812 459.851562 459.910156 460.117188 461.320312 C 460.382812 462.730469 460.613281 464.148438 460.808594 465.570312 C 461.007812 466.992188 461.167969 468.417969 461.292969 469.851562 C 461.417969 471.28125 461.511719 472.710938 461.566406 474.148438 C 461.621094 475.582031 461.644531 477.015625 461.628906 478.453125 C 461.613281 479.878906 461.5625 481.304688 461.480469 482.726562 C 461.394531 484.148438 461.277344 485.570312 461.121094 486.988281 C 460.96875 488.40625 460.78125 489.820312 460.558594 491.226562 C 460.335938 492.636719 460.078125 494.039062 459.789062 495.433594 C 459.5 496.832031 459.175781 498.21875 458.816406 499.601562 C 458.457031 500.980469 458.066406 502.351562 457.640625 503.710938 C 457.214844 505.074219 456.757812 506.421875 456.265625 507.761719 C 455.773438 509.101562 455.25 510.425781 454.695312 511.738281 C 454.136719 513.054688 453.550781 514.351562 452.933594 515.636719 C 452.3125 516.921875 451.664062 518.191406 450.980469 519.441406 C 450.300781 520.695312 449.589844 521.929688 448.847656 523.148438 C 448.105469 524.367188 447.335938 525.566406 446.535156 526.746094 C 445.738281 527.929688 444.910156 529.089844 444.050781 530.230469 C 443.195312 531.371094 442.3125 532.488281 441.402344 533.585938 C 440.492188 534.683594 439.554688 535.757812 438.589844 536.808594 C 437.625 537.859375 436.636719 538.886719 435.625 539.890625 C 434.613281 540.894531 433.574219 541.871094 432.511719 542.824219 C 431.453125 543.777344 430.367188 544.703125 429.261719 545.605469 C 428.15625 546.503906 427.027344 547.375 425.878906 548.21875 C 424.730469 549.066406 423.5625 549.882812 422.375 550.667969 C 421.183594 551.457031 419.976562 552.214844 418.753906 552.945312 C 417.527344 553.675781 416.285156 554.371094 415.023438 555.042969 C 413.765625 555.710938 412.488281 556.347656 411.199219 556.953125 C 409.90625 557.558594 408.601562 558.132812 407.285156 558.675781 C 405.964844 559.21875 404.632812 559.730469 403.289062 560.207031 C 401.945312 560.683594 400.59375 561.128906 399.226562 561.542969 C 397.863281 561.953125 396.488281 562.332031 395.101562 562.675781 C 393.71875 563.019531 392.328125 563.332031 390.929688 563.609375 C 389.53125 563.882812 388.125 564.125 386.714844 564.335938 C 385.304688 564.542969 383.890625 564.71875 382.46875 564.855469 C 381.050781 564.996094 379.628906 565.101562 378.203125 565.171875 C 376.78125 565.238281 375.355469 565.273438 373.929688 565.277344 Z M 373.886719 416.15625 C 372.550781 416.160156 371.214844 416.210938 369.882812 416.308594 C 368.550781 416.402344 367.222656 416.539062 365.902344 416.71875 C 364.578125 416.902344 363.261719 417.125 361.953125 417.390625 C 360.644531 417.660156 359.347656 417.96875 358.058594 418.320312 C 356.769531 418.671875 355.496094 419.066406 354.234375 419.503906 C 352.96875 419.9375 351.722656 420.414062 350.492188 420.929688 C 349.261719 421.445312 348.046875 422.003906 346.851562 422.601562 C 345.65625 423.195312 344.484375 423.832031 343.328125 424.503906 C 342.175781 425.175781 341.046875 425.886719 339.9375 426.632812 C 338.832031 427.378906 337.75 428.160156 336.695312 428.980469 C 335.636719 429.796875 334.609375 430.648438 333.609375 431.53125 C 332.609375 432.417969 331.636719 433.332031 330.699219 434.28125 C 329.757812 435.230469 328.847656 436.207031 327.972656 437.214844 C 327.097656 438.222656 326.253906 439.257812 325.445312 440.320312 C 324.636719 441.382812 323.863281 442.46875 323.125 443.582031 C 322.386719 444.695312 321.683594 445.832031 321.023438 446.992188 C 320.359375 448.148438 319.734375 449.328125 319.148438 450.53125 C 318.558594 451.730469 318.015625 452.945312 317.507812 454.183594 C 317 455.417969 316.535156 456.667969 316.109375 457.933594 C 315.683594 459.199219 315.300781 460.480469 314.957031 461.769531 C 314.617188 463.0625 314.316406 464.363281 314.0625 465.671875 C 313.804688 466.984375 313.589844 468.300781 313.421875 469.625 C 313.25 470.949219 313.125 472.277344 313.039062 473.609375 C 312.957031 474.945312 312.917969 476.277344 312.917969 477.613281 C 312.921875 478.949219 312.96875 480.28125 313.0625 481.613281 C 313.152344 482.945312 313.285156 484.273438 313.464844 485.597656 C 313.640625 486.921875 313.863281 488.238281 314.125 489.546875 C 314.390625 490.855469 314.695312 492.15625 315.042969 493.445312 C 315.390625 494.734375 315.78125 496.011719 316.214844 497.273438 C 316.644531 498.539062 317.117188 499.785156 317.632812 501.019531 C 318.144531 502.25 318.699219 503.464844 319.292969 504.664062 C 319.886719 505.859375 320.515625 507.035156 321.1875 508.191406 C 321.855469 509.347656 322.5625 510.476562 323.308594 511.585938 C 324.050781 512.695312 324.828125 513.78125 325.644531 514.839844 C 326.457031 515.898438 327.308594 516.925781 328.1875 517.929688 C 329.070312 518.933594 329.984375 519.90625 330.929688 520.847656 C 331.875 521.792969 332.851562 522.703125 333.855469 523.582031 C 334.863281 524.460938 335.894531 525.308594 336.953125 526.117188 C 338.015625 526.929688 339.101562 527.707031 340.210938 528.449219 C 341.324219 529.1875 342.457031 529.890625 343.613281 530.558594 C 344.773438 531.226562 345.949219 531.855469 347.148438 532.445312 C 348.34375 533.03125 349.5625 533.582031 350.796875 534.09375 C 352.03125 534.605469 353.28125 535.074219 354.542969 535.5 C 355.808594 535.929688 357.085938 536.316406 358.375 536.660156 C 359.667969 537.007812 360.964844 537.308594 362.277344 537.570312 C 363.585938 537.828125 364.902344 538.046875 366.226562 538.222656 C 367.550781 538.394531 368.878906 538.527344 370.210938 538.613281 C 371.542969 538.699219 372.878906 538.742188 374.214844 538.742188 C 375.550781 538.742188 376.882812 538.699219 378.214844 538.613281 C 379.550781 538.527344 380.878906 538.394531 382.203125 538.222656 C 383.523438 538.046875 384.84375 537.828125 386.152344 537.570312 C 387.460938 537.308594 388.761719 537.007812 390.050781 536.660156 C 391.34375 536.316406 392.621094 535.929688 393.882812 535.5 C 395.148438 535.074219 396.398438 534.605469 397.632812 534.09375 C 398.867188 533.582031 400.082031 533.03125 401.28125 532.445312 C 402.480469 531.855469 403.65625 531.226562 404.8125 530.558594 C 405.972656 529.890625 407.105469 529.1875 408.214844 528.449219 C 409.328125 527.707031 410.414062 526.929688 411.472656 526.117188 C 412.535156 525.308594 413.566406 524.460938 414.570312 523.582031 C 415.578125 522.703125 416.550781 521.792969 417.5 520.847656 C 418.445312 519.90625 419.355469 518.933594 420.238281 517.929688 C 421.121094 516.925781 421.96875 515.898438 422.785156 514.839844 C 423.597656 513.78125 424.378906 512.695312 425.121094 511.585938 C 425.867188 510.476562 426.574219 509.347656 427.242188 508.191406 C 427.910156 507.035156 428.542969 505.859375 429.136719 504.664062 C 429.730469 503.464844 430.28125 502.25 430.796875 501.019531 C 431.308594 499.785156 431.78125 498.539062 432.214844 497.273438 C 432.644531 496.011719 433.035156 494.734375 433.386719 493.445312 C 433.734375 492.15625 434.039062 490.855469 434.304688 489.546875 C 434.566406 488.238281 434.789062 486.921875 434.964844 485.597656 C 435.140625 484.273438 435.277344 482.945312 435.367188 481.613281 C 435.457031 480.28125 435.503906 478.949219 435.507812 477.613281 C 435.511719 476.277344 435.472656 474.945312 435.390625 473.609375 C 435.304688 472.277344 435.179688 470.949219 435.007812 469.625 C 434.835938 468.300781 434.625 466.984375 434.367188 465.671875 C 434.109375 464.363281 433.8125 463.0625 433.46875 461.769531 C 433.128906 460.480469 432.746094 459.199219 432.320312 457.933594 C 431.894531 456.667969 431.429688 455.417969 430.921875 454.183594 C 430.414062 452.945312 429.867188 451.730469 429.28125 450.53125 C 428.695312 449.328125 428.070312 448.148438 427.40625 446.992188 C 426.742188 445.832031 426.042969 444.695312 425.304688 443.582031 C 424.566406 442.46875 423.792969 441.382812 422.984375 440.320312 C 422.175781 439.257812 421.332031 438.222656 420.457031 437.214844 C 419.578125 436.207031 418.671875 435.230469 417.730469 434.28125 C 416.789062 433.332031 415.820312 432.417969 414.820312 431.53125 C 413.820312 430.648438 412.789062 429.796875 411.734375 428.980469 C 410.679688 428.160156 409.597656 427.378906 408.488281 426.632812 C 407.382812 425.886719 406.253906 425.175781 405.097656 424.503906 C 403.945312 423.832031 402.769531 423.195312 401.578125 422.601562 C 400.382812 422.003906 399.167969 421.445312 397.9375 420.929688 C 396.707031 420.414062 395.457031 419.9375 394.195312 419.503906 C 392.933594 419.066406 391.65625 418.671875 390.371094 418.320312 C 389.082031 417.96875 387.785156 417.660156 386.476562 417.390625 C 385.167969 417.125 383.851562 416.902344 382.527344 416.71875 C 381.203125 416.539062 379.875 416.402344 378.542969 416.308594 C 377.210938 416.210938 375.878906 416.160156 374.542969 416.15625 Z M 373.886719 416.15625 " fill-opacity="1" fill-rule="nonzero"/></g><g fill="#2c3a4e" fill-opacity="1"><g transform="translate(477.063819, 553.861881)"><g><path d="M 93.390625 0 L 19.609375 0 L 19.609375 -175.875 L 93.390625 -175.875 Z M 93.390625 0 "/></g></g></g><g fill="#2c3a4e" fill-opacity="1"><g transform="translate(590.063333, 553.861881)"><g><path d="M 353.96875 0 L 280.1875 0 L 280.1875 -112.140625 L 214.25 0 L 159.21875 0 L 93.390625 -112.140625 L 93.390625 0 L 19.609375 0 L 19.609375 -175.875 L 107.25 -175.875 L 186.796875 -50.25 L 266.21875 -175.875 L 353.96875 -175.875 Z M 353.96875 0 "/></g></g></g><g fill="#2c3a4e" fill-opacity="1"><g transform="translate(963.623577, 553.861881)"><g><path d="M 231.40625 0 L 19.609375 0 L 19.609375 -175.875 L 221.71875 -175.875 L 221.71875 -132.375 L 93.390625 -132.375 L 93.390625 -104.796875 L 201.859375 -104.796875 L 201.859375 -70.96875 L 93.390625 -70.96875 L 93.390625 -43.515625 L 231.40625 -43.515625 Z M 231.40625 0 "/></g></g></g><g fill="#2c3a4e" fill-opacity="1"><g transform="translate(293.999489, 653.597172)"><g><path d="M 51.1875 1.46875 C 34.457031 1.46875 22.144531 -1.976562 14.25 -8.875 C 7.269531 -14.9375 3.78125 -23.238281 3.78125 -33.78125 C 3.78125 -44.3125 7.269531 -52.628906 14.25 -58.734375 C 22.144531 -65.585938 34.457031 -69.015625 51.1875 -69.015625 C 61 -69.015625 69.109375 -67.890625 75.515625 -65.640625 C 81.929688 -63.390625 86.914062 -60.3125 90.46875 -56.40625 C 94.03125 -52.507812 96.390625 -48.046875 97.546875 -43.015625 L 67.6875 -43.015625 C 64.707031 -48.273438 59.207031 -50.90625 51.1875 -50.90625 C 44.332031 -50.90625 39.285156 -48.921875 36.046875 -44.953125 C 33.460938 -41.804688 32.171875 -38.082031 32.171875 -33.78125 C 32.171875 -29.46875 33.460938 -25.738281 36.046875 -22.59375 C 39.285156 -18.632812 44.332031 -16.65625 51.1875 -16.65625 C 59.207031 -16.65625 64.707031 -19.296875 67.6875 -24.578125 L 97.546875 -24.578125 C 96.390625 -19.515625 94.03125 -15.03125 90.46875 -11.125 C 86.914062 -7.226562 81.929688 -4.15625 75.515625 -1.90625 C 69.109375 0.34375 61 1.46875 51.1875 1.46875 Z M 51.1875 1.46875 "/></g></g></g><g fill="#2c3a4e" fill-opacity="1"><g transform="translate(395.314923, 653.597172)"><g><path d="M 113.6875 0 L 84.90625 0 L 78.546875 -11.078125 L 35.84375 -11.078125 L 29.484375 0 L 0.703125 0 L 44.015625 -67.640625 L 70.375 -67.640625 Z M 68.96875 -27.828125 L 57.21875 -48.359375 L 45.421875 -27.828125 Z M 68.96875 -27.828125 "/></g></g></g><g fill="#2c3a4e" fill-opacity="1"><g transform="translate(509.695714, 653.597172)"><g><path d="M 35.953125 0 L 7.546875 0 L 7.546875 -67.6875 L 53.734375 -67.6875 C 64.765625 -67.6875 73.671875 -66.859375 80.453125 -65.203125 C 87.234375 -63.554688 92.175781 -60.960938 95.28125 -57.421875 C 98.394531 -53.890625 99.953125 -49.28125 99.953125 -43.59375 C 99.953125 -37.925781 98.394531 -33.320312 95.28125 -29.78125 C 92.175781 -26.25 87.234375 -23.65625 80.453125 -22 C 73.671875 -20.351562 64.765625 -19.53125 53.734375 -19.53125 L 35.953125 -19.53125 Z M 35.953125 -36.234375 L 52.171875 -36.28125 C 56.703125 -36.28125 60.269531 -36.457031 62.875 -36.8125 C 65.488281 -37.175781 67.414062 -37.6875 68.65625 -38.34375 C 69.894531 -39.007812 70.6875 -39.789062 71.03125 -40.6875 C 71.382812 -41.582031 71.5625 -42.550781 71.5625 -43.59375 C 71.5625 -44.65625 71.382812 -45.632812 71.03125 -46.53125 C 70.6875 -47.425781 69.894531 -48.203125 68.65625 -48.859375 C 67.414062 -49.523438 65.488281 -50.039062 62.875 -50.40625 C 60.269531 -50.769531 56.703125 -50.953125 52.171875 -50.953125 L 35.953125 -50.953125 Z M 35.953125 -36.234375 "/></g></g></g><g fill="#2c3a4e" fill-opacity="1"><g transform="translate(613.416697, 653.597172)"><g><path d="M 44.71875 1.46875 C 35.570312 1.46875 28.195312 0.484375 22.59375 -1.484375 C 17 -3.453125 12.738281 -6.15625 9.8125 -9.59375 C 6.882812 -13.039062 4.921875 -17.015625 3.921875 -21.515625 L 34.0625 -21.515625 C 36.289062 -18.304688 39.84375 -16.703125 44.71875 -16.703125 C 49.59375 -16.703125 53.144531 -18.304688 55.375 -21.515625 C 55.5625 -21.828125 55.65625 -22.109375 55.65625 -22.359375 C 55.65625 -23.210938 54.53125 -23.847656 52.28125 -24.265625 C 50.039062 -24.691406 46.6875 -25.015625 42.21875 -25.234375 C 36.59375 -25.484375 30.679688 -26.082031 24.484375 -27.03125 C 10.679688 -29.164062 3.78125 -34.71875 3.78125 -43.6875 C 3.78125 -44.4375 3.828125 -45.238281 3.921875 -46.09375 C 4.921875 -50.582031 6.882812 -54.546875 9.8125 -57.984375 C 12.738281 -61.429688 17 -64.140625 22.59375 -66.109375 C 28.195312 -68.078125 35.570312 -69.0625 44.71875 -69.0625 C 53.875 -69.0625 61.25 -68.078125 66.84375 -66.109375 C 72.4375 -64.140625 76.695312 -61.429688 79.625 -57.984375 C 82.550781 -54.546875 84.519531 -50.582031 85.53125 -46.09375 L 55.375 -46.09375 C 53.144531 -49.300781 49.59375 -50.90625 44.71875 -50.90625 C 39.84375 -50.90625 36.289062 -49.300781 34.0625 -46.09375 C 33.90625 -45.832031 33.828125 -45.59375 33.828125 -45.375 C 33.828125 -44.625 34.898438 -44.066406 37.046875 -43.703125 C 39.203125 -43.335938 42.378906 -43.03125 46.578125 -42.78125 C 50.773438 -42.53125 55.25 -42.117188 60 -41.546875 C 64.75 -40.984375 69.191406 -40.003906 73.328125 -38.609375 C 77.460938 -37.210938 80.695312 -35.144531 83.03125 -32.40625 C 84.851562 -30.300781 85.765625 -27.628906 85.765625 -24.390625 C 85.765625 -23.472656 85.6875 -22.515625 85.53125 -21.515625 C 84.519531 -17.015625 82.550781 -13.039062 79.625 -9.59375 C 76.695312 -6.15625 72.4375 -3.453125 66.84375 -1.484375 C 61.25 0.484375 53.875 1.46875 44.71875 1.46875 Z M 44.71875 1.46875 "/></g></g></g><g fill="#2c3a4e" fill-opacity="1"><g transform="translate(702.940308, 653.597172)"><g><path d="M 47.59375 1.46875 C 31.082031 1.46875 19.460938 -1.960938 12.734375 -8.828125 C 7.078125 -14.578125 4.25 -22.894531 4.25 -33.78125 L 4.25 -67.640625 L 32.640625 -67.640625 L 32.640625 -33.78125 C 32.640625 -29.0625 33.441406 -25.332031 35.046875 -22.59375 C 37.347656 -18.664062 41.53125 -16.703125 47.59375 -16.703125 C 53.726562 -16.703125 57.925781 -18.664062 60.1875 -22.59375 C 61.789062 -25.425781 62.59375 -29.15625 62.59375 -33.78125 L 62.59375 -67.640625 L 91 -67.640625 L 91 -33.390625 C 91 -22.765625 88.179688 -14.578125 82.546875 -8.828125 C 75.785156 -1.960938 64.132812 1.46875 47.59375 1.46875 Z M 47.59375 1.46875 "/></g></g></g><g fill="#2c3a4e" fill-opacity="1"><g transform="translate(798.171152, 653.597172)"><g><path d="M 86.5625 0 L 7.546875 0 L 7.546875 -67.6875 L 35.953125 -67.6875 L 35.953125 -16.75 L 86.5625 -16.75 Z M 86.5625 0 "/></g></g></g><g fill="#2c3a4e" fill-opacity="1"><g transform="translate(886.6099, 653.597172)"><g><path d="M 89.0625 0 L 7.546875 0 L 7.546875 -67.6875 L 85.328125 -67.6875 L 85.328125 -50.953125 L 35.953125 -50.953125 L 35.953125 -40.328125 L 77.6875 -40.328125 L 77.6875 -27.3125 L 35.953125 -27.3125 L 35.953125 -16.75 L 89.0625 -16.75 Z M 89.0625 0 "/></g></g></g><g fill="#2c3a4e" fill-opacity="1"><g transform="translate(979.435215, 653.597172)"><g/></g></g><g fill="#2c3a4e" fill-opacity="1"><g transform="translate(1003.396202, 653.597172)"><g><path d="M 83.359375 0 L 3.78125 0 L 3.78125 -16.75 C 3.78125 -20.707031 4.925781 -23.96875 7.21875 -26.53125 C 9.507812 -29.09375 12.472656 -31.164062 16.109375 -32.75 C 19.742188 -34.34375 23.648438 -35.609375 27.828125 -36.546875 C 32.015625 -37.492188 36.054688 -38.285156 39.953125 -38.921875 C 45.109375 -39.734375 49.210938 -40.644531 52.265625 -41.65625 C 54.597656 -42.40625 55.765625 -43.457031 55.765625 -44.8125 C 55.765625 -45.21875 55.648438 -45.660156 55.421875 -46.140625 C 53.253906 -49.347656 49.703125 -50.953125 44.765625 -50.953125 C 39.890625 -50.953125 36.335938 -49.347656 34.109375 -46.140625 L 3.96875 -46.140625 C 4.96875 -50.628906 6.929688 -54.597656 9.859375 -58.046875 C 12.785156 -61.492188 17.046875 -64.195312 22.640625 -66.15625 C 28.242188 -68.125 35.617188 -69.109375 44.765625 -69.109375 C 53.921875 -69.109375 61.296875 -68.125 66.890625 -66.15625 C 72.484375 -64.195312 76.742188 -61.492188 79.671875 -58.046875 C 82.597656 -54.597656 84.566406 -50.628906 85.578125 -46.140625 C 85.734375 -45.066406 85.8125 -44.054688 85.8125 -43.109375 C 85.8125 -38.585938 84.078125 -34.847656 80.609375 -31.890625 C 77.148438 -28.929688 72.457031 -26.703125 66.53125 -25.203125 C 60.601562 -23.710938 54.8125 -22.578125 49.15625 -21.796875 C 46.289062 -21.390625 43.707031 -20.957031 41.40625 -20.5 C 39.113281 -20.039062 37.289062 -19.519531 35.9375 -18.9375 C 34.59375 -18.351562 33.921875 -17.625 33.921875 -16.75 L 83.359375 -16.75 Z M 83.359375 0 "/></g></g></g><g fill="#2c3a4e" fill-opacity="1"><g transform="translate(1092.966966, 653.597172)"><g><path d="M 14.4375 0 L 1.421875 0 L 1.421875 -13.015625 L 14.4375 -13.015625 Z M 14.4375 0 "/></g></g></g><g fill="#2c3a4e" fill-opacity="1"><g transform="translate(1108.815191, 653.597172)"><g><path d="M 44.8125 1.46875 C 30.3125 1.46875 19.648438 -1.976562 12.828125 -8.875 C 6.796875 -14.96875 3.78125 -23.285156 3.78125 -33.828125 C 3.78125 -44.328125 6.796875 -52.628906 12.828125 -58.734375 C 19.648438 -65.617188 30.3125 -69.0625 44.8125 -69.0625 C 59.28125 -69.0625 69.925781 -65.617188 76.75 -58.734375 C 82.820312 -52.628906 85.859375 -44.328125 85.859375 -33.828125 C 85.859375 -23.285156 82.820312 -14.96875 76.75 -8.875 C 69.925781 -1.976562 59.28125 1.46875 44.8125 1.46875 Z M 44.8125 -16.703125 C 50 -16.703125 53.550781 -18.773438 55.46875 -22.921875 C 56.757812 -25.722656 57.40625 -29.359375 57.40625 -33.828125 C 57.40625 -38.253906 56.757812 -41.882812 55.46875 -44.71875 C 53.550781 -48.875 50 -50.953125 44.8125 -50.953125 C 39.59375 -50.953125 36.023438 -48.875 34.109375 -44.71875 C 32.816406 -41.882812 32.171875 -38.253906 32.171875 -33.828125 C 32.171875 -29.390625 32.816406 -25.753906 34.109375 -22.921875 C 36.023438 -18.773438 39.59375 -16.703125 44.8125 -16.703125 Z M 44.8125 -16.703125 "/></g></g></g><g clip-path="url(#9eba0a5759)"><path fill="#ffffff" d="M 314.082031 490.328125 C 314.121094 477.8125 317.984375 465.625 325.183594 455.386719 C 332.203125 445.410156 342.335938 437.742188 353.773438 433.546875 C 365.671875 429.179688 378.867188 428.777344 391.054688 432.191406 C 402.796875 435.484375 413.304688 442.476562 421.097656 451.828125 C 437.390625 471.367188 439.277344 499.953125 426.195312 521.660156 C 419.925781 532.058594 410.472656 540.339844 399.453125 545.390625 C 387.90625 550.683594 374.695312 552.035156 362.273438 549.515625 C 337.796875 544.550781 318.683594 524.199219 314.789062 499.621094 C 314.300781 496.550781 314.09375 493.4375 314.085938 490.328125 C 314.082031 489.445312 312.710938 489.445312 312.714844 490.328125 C 312.753906 502.578125 316.371094 514.589844 323.1875 524.777344 C 329.792969 534.652344 339.292969 542.46875 350.195312 547.15625 C 361.550781 552.035156 374.253906 553.285156 386.371094 550.980469 C 398.160156 548.742188 409.113281 542.875 417.699219 534.535156 C 435.484375 517.261719 441.042969 490.148438 431.820312 467.1875 C 422.714844 444.507812 400.410156 429.230469 376.046875 428.554688 C 351.511719 427.871094 328.460938 442.429688 318.257812 464.6875 C 314.578125 472.71875 312.738281 481.503906 312.710938 490.328125 C 312.707031 491.210938 314.078125 491.210938 314.078125 490.328125 Z M 314.082031 490.328125 " fill-opacity="1" fill-rule="nonzero"/></g><path fill="#ffffff" d="M 373.136719 540.714844 L 373.136719 548.527344 C 373.136719 550.292969 375.875 550.292969 375.875 548.527344 L 375.875 540.714844 C 375.875 538.949219 373.136719 538.949219 373.136719 540.714844 Z M 373.136719 540.714844 " fill-opacity="1" fill-rule="nonzero"/><path fill="#ffffff" d="M 348.359375 533.351562 L 344.226562 540.046875 C 343.296875 541.554688 345.664062 542.929688 346.589844 541.429688 L 350.726562 534.730469 C 351.65625 533.226562 349.285156 531.851562 348.359375 533.351562 Z M 348.359375 533.351562 " fill-opacity="1" fill-rule="nonzero"/><path fill="#ffffff" d="M 330.179688 514.207031 L 323.402344 518.246094 C 321.890625 519.148438 323.265625 521.515625 324.785156 520.609375 L 331.558594 516.570312 C 333.074219 515.667969 331.699219 513.300781 330.179688 514.207031 Z M 330.179688 514.207031 " fill-opacity="1" fill-rule="nonzero"/><path fill="#ffffff" d="M 324 488.960938 L 316.308594 488.960938 C 314.542969 488.960938 314.542969 491.695312 316.308594 491.695312 L 324 491.695312 C 325.765625 491.695312 325.765625 488.960938 324 488.960938 Z M 324 488.960938 " fill-opacity="1" fill-rule="nonzero"/><path fill="#ffffff" d="M 331.660156 463.867188 L 324.785156 460.046875 C 323.242188 459.191406 321.859375 461.554688 323.402344 462.414062 L 330.277344 466.230469 C 331.820312 467.089844 333.203125 464.726562 331.660156 463.867188 Z M 331.660156 463.867188 " fill-opacity="1" fill-rule="nonzero"/><path fill="#ffffff" d="M 350.332031 445.851562 L 346.589844 439.226562 C 345.722656 437.6875 343.355469 439.066406 344.226562 440.605469 L 347.96875 447.234375 C 348.835938 448.773438 351.199219 447.390625 350.332031 445.851562 Z M 350.332031 445.851562 " fill-opacity="1" fill-rule="nonzero"/><path fill="#ffffff" d="M 375.875 439.839844 L 375.875 432.128906 C 375.875 430.363281 373.136719 430.363281 373.136719 432.128906 L 373.136719 439.839844 C 373.136719 441.605469 375.875 441.605469 375.875 439.839844 Z M 375.875 439.839844 " fill-opacity="1" fill-rule="nonzero"/><path fill="#ffffff" d="M 401.09375 447.453125 L 404.785156 440.605469 C 405.625 439.054688 403.261719 437.671875 402.421875 439.226562 L 398.730469 446.070312 C 397.890625 447.625 400.253906 449.007812 401.09375 447.453125 Z M 401.09375 447.453125 " fill-opacity="1" fill-rule="nonzero"/><path fill="#ffffff" d="M 418.832031 466.449219 L 425.609375 462.410156 C 427.121094 461.507812 425.746094 459.140625 424.226562 460.046875 L 417.453125 464.085938 C 415.9375 464.988281 417.3125 467.355469 418.832031 466.449219 Z M 418.832031 466.449219 " fill-opacity="1" fill-rule="nonzero"/><path fill="#ffffff" d="M 424.875 491.695312 L 432.703125 491.695312 C 434.46875 491.695312 434.46875 488.960938 432.703125 488.960938 L 424.875 488.960938 C 423.109375 488.960938 423.109375 491.695312 424.875 491.695312 Z M 424.875 491.695312 " fill-opacity="1" fill-rule="nonzero"/><path fill="#ffffff" d="M 417.550781 516.796875 L 424.226562 520.609375 C 425.761719 521.488281 427.140625 519.121094 425.609375 518.246094 L 418.933594 514.433594 C 417.398438 513.554688 416.019531 515.921875 417.550781 516.796875 Z M 417.550781 516.796875 " fill-opacity="1" fill-rule="nonzero"/><path fill="#ffffff" d="M 398.53125 534.507812 L 402.421875 541.429688 C 403.289062 542.96875 405.652344 541.589844 404.785156 540.046875 L 400.898438 533.125 C 400.03125 531.585938 397.667969 532.96875 398.53125 534.507812 Z M 398.53125 534.507812 " fill-opacity="1" fill-rule="nonzero"/><path fill="#ffffff" d="M 374.820312 486.835938 L 374.628906 486.835938 C 372.765625 486.835938 371.207031 488.390625 371.207031 490.257812 C 371.207031 492.121094 372.765625 493.679688 374.628906 493.679688 L 374.820312 493.679688 C 376.6875 493.679688 378.242188 492.121094 378.242188 490.257812 C 378.242188 488.390625 376.6875 486.835938 374.820312 486.835938 Z M 374.820312 486.835938 " fill-opacity="1" fill-rule="nonzero"/><path fill="#ffffff" d="M 375.289062 490.460938 L 375.289062 459.714844 C 375.289062 458.832031 373.921875 458.832031 373.921875 459.714844 L 373.921875 490.460938 C 373.921875 491.34375 375.289062 491.34375 375.289062 490.460938 Z M 375.289062 490.460938 " fill-opacity="1" fill-rule="nonzero"/><path fill="#ffffff" d="M 374.976562 489.910156 L 354.703125 454.832031 L 353.082031 452.023438 C 352.640625 451.261719 351.457031 451.949219 351.902344 452.714844 L 372.175781 487.796875 L 373.796875 490.601562 C 374.238281 491.367188 375.421875 490.675781 374.976562 489.910156 Z M 374.976562 489.910156 " fill-opacity="1" fill-rule="nonzero"/></svg>